<svg width="62" height="32" viewBox="0 0 62 32" fill="none" xmlns="http://www.w3.org/2000/svg">
<path d="M14.1631 4.26548C14.8573 2.65355 17.1427 2.65356 17.8369 4.26548L19.8564 8.95491C20.1459 9.62726 20.7797 10.0877 21.5086 10.1553L26.5925 10.6268C28.3401 10.7889 29.0463 12.9625 27.7278 14.1208L23.892 17.4906C23.342 17.9737 23.0999 18.7187 23.2609 19.4329L24.3835 24.4137C24.7693 26.1258 22.9203 27.4692 21.4113 26.5731L17.0211 23.9663C16.3917 23.5926 15.6083 23.5926 14.9789 23.9663L10.5887 26.5731C9.07966 27.4692 7.23066 26.1258 7.61654 24.4137L8.73912 19.4329C8.90007 18.7187 8.658 17.9737 8.10803 17.4906L4.27217 14.1208C2.95365 12.9625 3.65991 10.7889 5.40745 10.6268L10.4914 10.1553C11.2203 10.0877 11.8541 9.62726 12.1436 8.95491L14.1631 4.26548Z" fill="#F2C94C"/>
<path d="M36.752 19.728V17.968L41.984 10.48H44.592V17.776H46V19.728H44.592V22H42.352V19.728H36.752ZM42.496 12.88L39.216 17.776H42.496V12.88ZM48.6741 22.112C48.2688 22.112 47.9328 21.9893 47.6661 21.744C47.4101 21.488 47.2821 21.1733 47.2821 20.8C47.2821 20.4267 47.4101 20.1173 47.6661 19.872C47.9328 19.616 48.2688 19.488 48.6741 19.488C49.0688 19.488 49.3941 19.616 49.6501 19.872C49.9061 20.1173 50.0341 20.4267 50.0341 20.8C50.0341 21.1733 49.9061 21.488 49.6501 21.744C49.3941 21.9893 49.0688 22.112 48.6741 22.112ZM53.5344 15.824C52.4677 15.2693 51.9344 14.4107 51.9344 13.248C51.9344 12.672 52.0784 12.1493 52.3664 11.68C52.665 11.2 53.1077 10.8213 53.6944 10.544C54.2917 10.256 55.017 10.112 55.8704 10.112C56.7237 10.112 57.4437 10.256 58.0304 10.544C58.6277 10.8213 59.0704 11.2 59.3584 11.68C59.657 12.1493 59.8064 12.672 59.8064 13.248C59.8064 13.8347 59.6624 14.352 59.3744 14.8C59.0864 15.2373 58.7024 15.5787 58.2224 15.824C58.809 16.08 59.2677 16.4533 59.5984 16.944C59.929 17.4347 60.0944 18.016 60.0944 18.688C60.0944 19.4133 59.9077 20.048 59.5344 20.592C59.1717 21.1253 58.6704 21.536 58.0304 21.824C57.3904 22.112 56.6704 22.256 55.8704 22.256C55.0704 22.256 54.3504 22.112 53.7104 21.824C53.081 21.536 52.5797 21.1253 52.2064 20.592C51.8437 20.048 51.6624 19.4133 51.6624 18.688C51.6624 18.016 51.8277 17.4347 52.1584 16.944C52.489 16.4427 52.9477 16.0693 53.5344 15.824ZM57.6304 13.568C57.6304 13.0453 57.4704 12.64 57.1504 12.352C56.841 12.064 56.4144 11.92 55.8704 11.92C55.337 11.92 54.9104 12.064 54.5904 12.352C54.281 12.64 54.1264 13.0507 54.1264 13.584C54.1264 14.064 54.2864 14.448 54.6064 14.736C54.937 15.024 55.3584 15.168 55.8704 15.168C56.3824 15.168 56.8037 15.024 57.1344 14.736C57.465 14.4373 57.6304 14.048 57.6304 13.568ZM55.8704 16.8C55.2624 16.8 54.7664 16.9547 54.3824 17.264C54.009 17.5733 53.8224 18.016 53.8224 18.592C53.8224 19.1253 54.0037 19.5627 54.3664 19.904C54.7397 20.2347 55.241 20.4 55.8704 20.4C56.4997 20.4 56.9957 20.2293 57.3584 19.888C57.721 19.5467 57.9024 19.1147 57.9024 18.592C57.9024 18.0267 57.7157 17.5893 57.3424 17.28C56.969 16.96 56.4784 16.8 55.8704 16.8Z" fill="#2F294D"/>
</svg>
