<svg width="62" height="32" viewBox="0 0 62 32" fill="none" xmlns="http://www.w3.org/2000/svg">
<path d="M14.1631 4.26548C14.8573 2.65355 17.1427 2.65356 17.8369 4.26548L19.8564 8.95491C20.1459 9.62726 20.7797 10.0877 21.5086 10.1553L26.5925 10.6268C28.3401 10.7889 29.0463 12.9625 27.7278 14.1208L23.892 17.4906C23.342 17.9737 23.0999 18.7187 23.2609 19.4329L24.3835 24.4137C24.7693 26.1258 22.9203 27.4692 21.4113 26.5731L17.0211 23.9663C16.3917 23.5926 15.6083 23.5926 14.9789 23.9663L10.5887 26.5731C9.07966 27.4692 7.23066 26.1258 7.61654 24.4137L8.73912 19.4329C8.90007 18.7187 8.658 17.9737 8.10803 17.4906L4.27217 14.1208C2.95365 12.9625 3.65991 10.7889 5.40745 10.6268L10.4914 10.1553C11.2203 10.0877 11.8541 9.62726 12.1436 8.95491L14.1631 4.26548Z" fill="#F2C94C"/>
<path d="M36.752 19.728V17.968L41.984 10.48H44.592V17.776H46V19.728H44.592V22H42.352V19.728H36.752ZM42.496 12.88L39.216 17.776H42.496V12.88ZM48.6741 22.112C48.2688 22.112 47.9328 21.9893 47.6661 21.744C47.4101 21.488 47.2821 21.1733 47.2821 20.8C47.2821 20.4267 47.4101 20.1173 47.6661 19.872C47.9328 19.616 48.2688 19.488 48.6741 19.488C49.0688 19.488 49.3941 19.616 49.6501 19.872C49.9061 20.1173 50.0341 20.4267 50.0341 20.8C50.0341 21.1733 49.9061 21.488 49.6501 21.744C49.3941 21.9893 49.0688 22.112 48.6741 22.112ZM59.4224 12.272H54.2384V15.008C54.4624 14.7307 54.7824 14.5067 55.1984 14.336C55.6144 14.1547 56.057 14.064 56.5264 14.064C57.3797 14.064 58.0784 14.2507 58.6224 14.624C59.1664 14.9973 59.561 15.4773 59.8064 16.064C60.0517 16.64 60.1744 17.2587 60.1744 17.92C60.1744 19.1467 59.8224 20.1333 59.1184 20.88C58.425 21.6267 57.433 22 56.1424 22C54.9264 22 53.9557 21.696 53.2304 21.088C52.505 20.48 52.0944 19.6853 51.9984 18.704H54.1744C54.2704 19.1307 54.4837 19.472 54.8144 19.728C55.1557 19.984 55.5877 20.112 56.1104 20.112C56.7397 20.112 57.2144 19.9147 57.5344 19.52C57.8544 19.1253 58.0144 18.6027 58.0144 17.952C58.0144 17.2907 57.849 16.7893 57.5184 16.448C57.1984 16.096 56.7237 15.92 56.0944 15.92C55.6464 15.92 55.273 16.032 54.9744 16.256C54.6757 16.48 54.4624 16.7787 54.3344 17.152H52.1904V10.304H59.4224V12.272Z" fill="#2F294D"/>
</svg>
