<svg width="61" height="32" viewBox="0 0 61 32" fill="none" xmlns="http://www.w3.org/2000/svg">
<path d="M14.1631 4.26548C14.8573 2.65355 17.1427 2.65356 17.8369 4.26548L19.8564 8.95491C20.1459 9.62726 20.7797 10.0877 21.5086 10.1553L26.5925 10.6268C28.3401 10.7889 29.0463 12.9625 27.7278 14.1208L23.892 17.4906C23.342 17.9737 23.0999 18.7187 23.2609 19.4329L24.3835 24.4137C24.7693 26.1258 22.9203 27.4692 21.4113 26.5731L17.0211 23.9663C16.3917 23.5926 15.6083 23.5926 14.9789 23.9663L10.5887 26.5731C9.07966 27.4692 7.23066 26.1258 7.61654 24.4137L8.73912 19.4329C8.90007 18.7187 8.658 17.9737 8.10803 17.4906L4.27217 14.1208C2.95365 12.9625 3.65991 10.7889 5.40745 10.6268L10.4914 10.1553C11.2203 10.0877 11.8541 9.62726 12.1436 8.95491L14.1631 4.26548Z" fill="#F2C94C"/>
<path d="M36.752 19.728V17.968L41.984 10.48H44.592V17.776H46V19.728H44.592V22H42.352V19.728H36.752ZM42.496 12.88L39.216 17.776H42.496V12.88ZM48.6741 22.112C48.2688 22.112 47.9328 21.9893 47.6661 21.744C47.4101 21.488 47.2821 21.1733 47.2821 20.8C47.2821 20.4267 47.4101 20.1173 47.6661 19.872C47.9328 19.616 48.2688 19.488 48.6741 19.488C49.0688 19.488 49.3941 19.616 49.6501 19.872C49.9061 20.1173 50.0341 20.4267 50.0341 20.8C50.0341 21.1733 49.9061 21.488 49.6501 21.744C49.3941 21.9893 49.0688 22.112 48.6741 22.112ZM54.1744 18.72C54.2597 19.1893 54.4517 19.552 54.7504 19.808C55.0597 20.0533 55.4704 20.176 55.9824 20.176C56.6437 20.176 57.1237 19.904 57.4224 19.36C57.721 18.8053 57.8704 17.8773 57.8704 16.576C57.625 16.9173 57.2784 17.184 56.8304 17.376C56.393 17.568 55.9184 17.664 55.4064 17.664C54.7237 17.664 54.105 17.5253 53.5504 17.248C53.0064 16.96 52.5744 16.5387 52.2544 15.984C51.9344 15.4187 51.7744 14.736 51.7744 13.936C51.7744 12.752 52.1264 11.8133 52.8304 11.12C53.5344 10.416 54.4944 10.064 55.7104 10.064C57.225 10.064 58.2917 10.5493 58.9104 11.52C59.5397 12.4907 59.8544 13.952 59.8544 15.904C59.8544 17.2907 59.7317 18.4267 59.4864 19.312C59.2517 20.1973 58.841 20.8693 58.2544 21.328C57.6784 21.7867 56.889 22.016 55.8864 22.016C55.097 22.016 54.425 21.8667 53.8704 21.568C53.3157 21.2587 52.889 20.8587 52.5904 20.368C52.3024 19.8667 52.137 19.3173 52.0944 18.72H54.1744ZM55.8704 15.84C56.425 15.84 56.8624 15.6693 57.1824 15.328C57.5024 14.9867 57.6624 14.528 57.6624 13.952C57.6624 13.3227 57.4917 12.8373 57.1504 12.496C56.8197 12.144 56.3664 11.968 55.7904 11.968C55.2144 11.968 54.7557 12.1493 54.4144 12.512C54.0837 12.864 53.9184 13.3333 53.9184 13.92C53.9184 14.4853 54.0784 14.9493 54.3984 15.312C54.729 15.664 55.2197 15.84 55.8704 15.84Z" fill="#2F294D"/>
</svg>
